<?xml version="1.0" encoding="UTF-8"?>
<svg xmlns="http://www.w3.org/2000/svg" xmlns:xlink="http://www.w3.org/1999/xlink" width="38pt" height="38pt" viewBox="0 0 38 38" version="1.1">
<g id="surface1">
<path style=" stroke:none;fill-rule:nonzero;fill:rgb(0%,0%,0%);fill-opacity:1;" d="M 0.59375 19 C 0.59375 8.832031 8.832031 0.59375 19 0.59375 C 29.167969 0.59375 37.40625 8.832031 37.40625 19 C 37.40625 29.167969 29.167969 37.40625 19 37.40625 C 8.832031 37.40625 0.59375 29.167969 0.59375 19 Z M 22.265625 27.609375 L 22.265625 19 L 27.527344 19 C 28.320312 19 28.722656 18.035156 28.160156 17.476562 L 19.632812 8.996094 C 19.28125 8.648438 18.726562 8.648438 18.375 8.996094 L 9.839844 17.476562 C 9.277344 18.042969 9.679688 19 10.472656 19 L 15.734375 19 L 15.734375 27.609375 C 15.734375 28.097656 16.136719 28.5 16.625 28.5 L 21.375 28.5 C 21.863281 28.5 22.265625 28.097656 22.265625 27.609375 Z M 22.265625 27.609375 "/>
</g>
</svg>
