<?xml version="1.0" encoding="UTF-8"?>
<svg xmlns="http://www.w3.org/2000/svg" xmlns:xlink="http://www.w3.org/1999/xlink" width="162pt" height="130pt" viewBox="0 0 162 130" version="1.1">
<g id="surface1">
<path style="fill:#B7CEB3;" d="M 64.917969 55.039062 L 86.871094 82.761719 C 86.871094 82.761719 82.671875 108.75 67.492188 120.878906 C 52.3125 133.007812 0 129.539062 0 129.539062 C 0 129.539062 0.960938 123.664062 2.785156 115.464844 L 26.734375 86.984375 C 27.738281 85.792969 26.515625 84.035156 25.050781 84.574219 L 9.761719 90.183594 C 13.417969 79.605469 18.046875 69.859375 23.582031 65.433594 C 38.761719 53.308594 64.917969 55.039062 64.917969 55.039062 Z M 161.121094 7.878906 L 156.09375 1.53125 C 154.703125 -0.222656 152.167969 -0.511719 150.421875 0.882812 L 91.574219 46.027344 L 82.933594 35.117188 C 81.644531 33.488281 79.101562 33.792969 78.226562 35.675781 L 71.816406 49.527344 L 93.769531 77.25 L 108.652344 74.085938 C 110.679688 73.65625 111.542969 71.242188 110.257812 69.617188 L 101.628906 58.722656 L 160.476562 13.578125 C 162.21875 12.183594 162.511719 9.632812 161.121094 7.878906 Z M 161.121094 7.878906 "/>
</g>
</svg>
