<?xml version="1.0" encoding="UTF-8"?>
<svg xmlns="http://www.w3.org/2000/svg" xmlns:xlink="http://www.w3.org/1999/xlink" width="130pt" height="130pt" viewBox="0 0 130 130" version="1.1">
<g id="surface1">
<path style="fill:#B7CEB3;" d="M 0 102.90625 L 0 113.75 C 0 122.710938 21.835938 130 48.75 130 C 75.664062 130 97.5 122.710938 97.5 113.75 L 97.5 102.90625 C 87.015625 110.296875 67.84375 113.75 48.75 113.75 C 29.65625 113.75 10.484375 110.296875 0 102.90625 Z M 81.25 32.5 C 108.164062 32.5 130 25.210938 130 16.25 C 130 7.289062 108.164062 0 81.25 0 C 54.335938 0 32.5 7.289062 32.5 16.25 C 32.5 25.210938 54.335938 32.5 81.25 32.5 Z M 0 76.273438 L 0 89.375 C 0 98.335938 21.835938 105.625 48.75 105.625 C 75.664062 105.625 97.5 98.335938 97.5 89.375 L 97.5 76.273438 C 87.015625 84.90625 67.820312 89.375 48.75 89.375 C 29.679688 89.375 10.484375 84.90625 0 76.273438 Z M 105.625 79.066406 C 120.171875 76.246094 130 71.015625 130 65 L 130 54.15625 C 124.109375 58.320312 115.453125 61.164062 105.625 62.917969 Z M 48.75 40.625 C 21.835938 40.625 0 49.714844 0 60.9375 C 0 72.160156 21.835938 81.25 48.75 81.25 C 75.664062 81.25 97.5 72.160156 97.5 60.9375 C 97.5 49.714844 75.664062 40.625 48.75 40.625 Z M 104.429688 54.921875 C 119.664062 52.179688 130 46.796875 130 40.625 L 130 29.78125 C 120.984375 36.15625 105.5 39.585938 89.195312 40.398438 C 96.6875 44.027344 102.195312 48.902344 104.429688 54.921875 Z M 104.429688 54.921875 "/>
</g>
</svg>
