<?xml version="1.0" encoding="UTF-8"?>
<svg xmlns="http://www.w3.org/2000/svg" xmlns:xlink="http://www.w3.org/1999/xlink" width="146pt" height="130pt" viewBox="0 0 146 130" version="1.1">
<g id="surface1">
<path style=" stroke:none;fill-rule:nonzero;fill:rgb(14.901961%,29.411765%,12.54902%);fill-opacity:1;" d="M 102.046875 21.125 L 124.910156 44.027344 C 125.875 44.992188 125.875 46.566406 124.910156 47.53125 L 69.554688 102.984375 L 46.03125 105.601562 C 42.886719 105.953125 40.226562 103.289062 40.582031 100.140625 L 43.191406 76.578125 L 98.550781 21.125 C 99.511719 20.160156 101.085938 20.160156 102.046875 21.125 Z M 143.109375 15.3125 L 130.742188 2.921875 C 126.886719 -0.9375 120.628906 -0.9375 116.75 2.921875 L 107.777344 11.910156 C 106.8125 12.875 106.8125 14.449219 107.777344 15.414062 L 130.640625 38.3125 C 131.601562 39.28125 133.175781 39.28125 134.136719 38.3125 L 143.109375 29.328125 C 146.964844 25.441406 146.964844 19.171875 143.109375 15.3125 Z M 97.332031 87.902344 L 97.332031 113.75 L 16.222656 113.75 L 16.222656 32.5 L 74.46875 32.5 C 75.28125 32.5 76.042969 32.171875 76.625 31.609375 L 86.761719 21.453125 C 88.691406 19.523438 87.320312 16.25 84.609375 16.25 L 12.167969 16.25 C 5.449219 16.25 0 21.710938 0 28.4375 L 0 117.8125 C 0 124.539062 5.449219 130 12.167969 130 L 101.390625 130 C 108.105469 130 113.554688 124.539062 113.554688 117.8125 L 113.554688 77.746094 C 113.554688 75.03125 110.285156 73.683594 108.359375 75.585938 L 98.21875 85.742188 C 97.664062 86.328125 97.332031 87.089844 97.332031 87.902344 Z M 97.332031 87.902344 "/>
</g>
</svg>
