<svg width="91" height="51" viewBox="0 0 91 51" fill="none" xmlns="http://www.w3.org/2000/svg">
<path d="M26.7578 18H23.2422V10.6875H16.3867V18H12.8711V0.9375H16.3867V7.85156H23.2422V0.9375H26.7578V18Z" fill="#FFFDFD"/>
<path d="M29.0898 11.543C29.0898 10.2852 29.332 9.16406 29.8164 8.17969C30.3008 7.19531 30.9961 6.43359 31.9023 5.89453C32.8164 5.35547 33.875 5.08594 35.0781 5.08594C36.7891 5.08594 38.1836 5.60938 39.2617 6.65625C40.3477 7.70312 40.9531 9.125 41.0781 10.9219L41.1016 11.7891C41.1016 13.7344 40.5586 15.2969 39.4727 16.4766C38.3867 17.6484 36.9297 18.2344 35.1016 18.2344C33.2734 18.2344 31.8125 17.6484 30.7188 16.4766C29.6328 15.3047 29.0898 13.7109 29.0898 11.6953V11.543ZM32.4766 11.7891C32.4766 12.9922 32.7031 13.9141 33.1562 14.5547C33.6094 15.1875 34.2578 15.5039 35.1016 15.5039C35.9219 15.5039 36.5625 15.1914 37.0234 14.5664C37.4844 13.9336 37.7148 12.9258 37.7148 11.543C37.7148 10.3633 37.4844 9.44922 37.0234 8.80078C36.5625 8.15234 35.9141 7.82812 35.0781 7.82812C34.25 7.82812 33.6094 8.15234 33.1562 8.80078C32.7031 9.44141 32.4766 10.4375 32.4766 11.7891Z" fill="#FFFDFD"/>
<path d="M50.7812 16.7109C49.9453 17.7266 48.7891 18.2344 47.3125 18.2344C45.9531 18.2344 44.9141 17.8438 44.1953 17.0625C43.4844 16.2812 43.1211 15.1367 43.1055 13.6289V5.32031H46.4922V13.5117C46.4922 14.832 47.0938 15.4922 48.2969 15.4922C49.4453 15.4922 50.2344 15.0938 50.6641 14.2969V5.32031H54.0625V18H50.875L50.7812 16.7109Z" fill="#FFFDFD"/>
<path d="M63.4844 14.4961C63.4844 14.082 63.2773 13.7578 62.8633 13.5234C62.457 13.2812 61.8008 13.0664 60.8945 12.8789C57.8789 12.2461 56.3711 10.9648 56.3711 9.03516C56.3711 7.91016 56.8359 6.97266 57.7656 6.22266C58.7031 5.46484 59.9258 5.08594 61.4336 5.08594C63.043 5.08594 64.3281 5.46484 65.2891 6.22266C66.2578 6.98047 66.7422 7.96484 66.7422 9.17578H63.3555C63.3555 8.69141 63.1992 8.29297 62.8867 7.98047C62.5742 7.66016 62.0859 7.5 61.4219 7.5C60.8516 7.5 60.4102 7.62891 60.0977 7.88672C59.7852 8.14453 59.6289 8.47266 59.6289 8.87109C59.6289 9.24609 59.8047 9.55078 60.1562 9.78516C60.5156 10.0117 61.1172 10.2109 61.9609 10.3828C62.8047 10.5469 63.5156 10.7344 64.0938 10.9453C65.8828 11.6016 66.7773 12.7383 66.7773 14.3555C66.7773 15.5117 66.2812 16.4492 65.2891 17.168C64.2969 17.8789 63.0156 18.2344 61.4453 18.2344C60.3828 18.2344 59.4375 18.0469 58.6094 17.6719C57.7891 17.2891 57.1445 16.7695 56.6758 16.1133C56.207 15.4492 55.9727 14.7344 55.9727 13.9688H59.1836C59.2148 14.5703 59.4375 15.0312 59.8516 15.3516C60.2656 15.6719 60.8203 15.832 61.5156 15.832C62.1641 15.832 62.6523 15.7109 62.9805 15.4688C63.3164 15.2188 63.4844 14.8945 63.4844 14.4961Z" fill="#FFFDFD"/>
<path d="M74.8047 18.2344C72.9453 18.2344 71.4297 17.6641 70.2578 16.5234C69.0938 15.3828 68.5117 13.8633 68.5117 11.9648V11.6367C68.5117 10.3633 68.7578 9.22656 69.25 8.22656C69.7422 7.21875 70.4375 6.44531 71.3359 5.90625C72.2422 5.35938 73.2734 5.08594 74.4297 5.08594C76.1641 5.08594 77.5273 5.63281 78.5195 6.72656C79.5195 7.82031 80.0195 9.37109 80.0195 11.3789V12.7617H71.9453C72.0547 13.5898 72.3828 14.2539 72.9297 14.7539C73.4844 15.2539 74.1836 15.5039 75.0273 15.5039C76.332 15.5039 77.3516 15.0312 78.0859 14.0859L79.75 15.9492C79.2422 16.668 78.5547 17.2305 77.6875 17.6367C76.8203 18.0352 75.8594 18.2344 74.8047 18.2344ZM74.418 7.82812C73.7461 7.82812 73.1992 8.05469 72.7773 8.50781C72.3633 8.96094 72.0977 9.60938 71.9805 10.4531H76.6914V10.1836C76.6758 9.43359 76.4727 8.85547 76.082 8.44922C75.6914 8.03516 75.1367 7.82812 74.418 7.82812Z" fill="#FFFDFD"/>
<path d="M6.70703 43.5039C7.33203 43.5039 7.83984 43.332 8.23047 42.9883C8.62109 42.6445 8.82422 42.1875 8.83984 41.6172H12.0156C12.0078 42.4766 11.7734 43.2656 11.3125 43.9844C10.8516 44.6953 10.2188 45.25 9.41406 45.6484C8.61719 46.0391 7.73438 46.2344 6.76562 46.2344C4.95312 46.2344 3.52344 45.6602 2.47656 44.5117C1.42969 43.3555 0.90625 41.7617 0.90625 39.7305V39.5078C0.90625 37.5547 1.42578 35.9961 2.46484 34.832C3.50391 33.668 4.92969 33.0859 6.74219 33.0859C8.32812 33.0859 9.59766 33.5391 10.5508 34.4453C11.5117 35.3438 12 36.543 12.0156 38.043H8.83984C8.82422 37.3867 8.62109 36.8555 8.23047 36.4492C7.83984 36.0352 7.32422 35.8281 6.68359 35.8281C5.89453 35.8281 5.29688 36.1172 4.89062 36.6953C4.49219 37.2656 4.29297 38.1953 4.29297 39.4844V39.8359C4.29297 41.1406 4.49219 42.0781 4.89062 42.6484C5.28906 43.2188 5.89453 43.5039 6.70703 43.5039Z" fill="#FFFDFD"/>
<path d="M17.5234 46H14.125V28H17.5234V46Z" fill="#FFFDFD"/>
<path d="M26.1602 46.2344C24.3008 46.2344 22.7852 45.6641 21.6133 44.5234C20.4492 43.3828 19.8672 41.8633 19.8672 39.9648V39.6367C19.8672 38.3633 20.1133 37.2266 20.6055 36.2266C21.0977 35.2188 21.793 34.4453 22.6914 33.9062C23.5977 33.3594 24.6289 33.0859 25.7852 33.0859C27.5195 33.0859 28.8828 33.6328 29.875 34.7266C30.875 35.8203 31.375 37.3711 31.375 39.3789V40.7617H23.3008C23.4102 41.5898 23.7383 42.2539 24.2852 42.7539C24.8398 43.2539 25.5391 43.5039 26.3828 43.5039C27.6875 43.5039 28.707 43.0312 29.4414 42.0859L31.1055 43.9492C30.5977 44.668 29.9102 45.2305 29.043 45.6367C28.1758 46.0352 27.2148 46.2344 26.1602 46.2344ZM25.7734 35.8281C25.1016 35.8281 24.5547 36.0547 24.1328 36.5078C23.7188 36.9609 23.4531 37.6094 23.3359 38.4531H28.0469V38.1836C28.0312 37.4336 27.8281 36.8555 27.4375 36.4492C27.0469 36.0352 26.4922 35.8281 25.7734 35.8281Z" fill="#FFFDFD"/>
<path d="M40.6562 46C40.5 45.6953 40.3867 45.3164 40.3164 44.8633C39.4961 45.7773 38.4297 46.2344 37.1172 46.2344C35.875 46.2344 34.8438 45.875 34.0234 45.1562C33.2109 44.4375 32.8047 43.5312 32.8047 42.4375C32.8047 41.0938 33.3008 40.0625 34.293 39.3438C35.293 38.625 36.7344 38.2617 38.6172 38.2539H40.1758V37.5273C40.1758 36.9414 40.0234 36.4727 39.7188 36.1211C39.4219 35.7695 38.9492 35.5938 38.3008 35.5938C37.7305 35.5938 37.2812 35.7305 36.9531 36.0039C36.6328 36.2773 36.4727 36.6523 36.4727 37.1289H33.0859C33.0859 36.3945 33.3125 35.7148 33.7656 35.0898C34.2188 34.4648 34.8594 33.9766 35.6875 33.625C36.5156 33.2656 37.4453 33.0859 38.4766 33.0859C40.0391 33.0859 41.2773 33.4805 42.1914 34.2695C43.1133 35.0508 43.5742 36.1523 43.5742 37.5742V43.0703C43.582 44.2734 43.75 45.1836 44.0781 45.8008V46H40.6562ZM37.8555 43.6445C38.3555 43.6445 38.8164 43.5352 39.2383 43.3164C39.6602 43.0898 39.9727 42.7891 40.1758 42.4141V40.2344H38.9102C37.2148 40.2344 36.3125 40.8203 36.2031 41.9922L36.1914 42.1914C36.1914 42.6133 36.3398 42.9609 36.6367 43.2344C36.9336 43.5078 37.3398 43.6445 37.8555 43.6445Z" fill="#FFFDFD"/>
<path d="M49.293 33.3203L49.3984 34.7852C50.3047 33.6523 51.5195 33.0859 53.043 33.0859C54.3867 33.0859 55.3867 33.4805 56.043 34.2695C56.6992 35.0586 57.0352 36.2383 57.0508 37.8086V46H53.6641V37.8906C53.6641 37.1719 53.5078 36.6523 53.1953 36.332C52.8828 36.0039 52.3633 35.8398 51.6367 35.8398C50.6836 35.8398 49.9688 36.2461 49.4922 37.0586V46H46.1055V33.3203H49.293Z" fill="#FFFDFD"/>
<path d="M63.2031 46H59.8047V33.3203H63.2031V46ZM59.6055 30.0391C59.6055 29.5312 59.7734 29.1133 60.1094 28.7852C60.4531 28.457 60.918 28.293 61.5039 28.293C62.082 28.293 62.543 28.457 62.8867 28.7852C63.2305 29.1133 63.4023 29.5312 63.4023 30.0391C63.4023 30.5547 63.2266 30.9766 62.875 31.3047C62.5312 31.6328 62.0742 31.7969 61.5039 31.7969C60.9336 31.7969 60.4727 31.6328 60.1211 31.3047C59.7773 30.9766 59.6055 30.5547 59.6055 30.0391Z" fill="#FFFDFD"/>
<path d="M69.1211 33.3203L69.2266 34.7852C70.1328 33.6523 71.3477 33.0859 72.8711 33.0859C74.2148 33.0859 75.2148 33.4805 75.8711 34.2695C76.5273 35.0586 76.8633 36.2383 76.8789 37.8086V46H73.4922V37.8906C73.4922 37.1719 73.3359 36.6523 73.0234 36.332C72.7109 36.0039 72.1914 35.8398 71.4648 35.8398C70.5117 35.8398 69.7969 36.2461 69.3203 37.0586V46H65.9336V33.3203H69.1211Z" fill="#FFFDFD"/>
<path d="M78.9648 39.5664C78.9648 37.6211 79.4258 36.0547 80.3477 34.8672C81.2773 33.6797 82.5273 33.0859 84.0977 33.0859C85.4883 33.0859 86.5703 33.5625 87.3438 34.5156L87.4844 33.3203H90.5547V45.5781C90.5547 46.6875 90.3008 47.6523 89.793 48.4727C89.293 49.293 88.5859 49.918 87.6719 50.3477C86.7578 50.7773 85.6875 50.9922 84.4609 50.9922C83.5312 50.9922 82.625 50.8047 81.7422 50.4297C80.8594 50.0625 80.1914 49.5859 79.7383 49L81.2383 46.9375C82.082 47.8828 83.1055 48.3555 84.3086 48.3555C85.207 48.3555 85.9062 48.1133 86.4062 47.6289C86.9062 47.1523 87.1562 46.4727 87.1562 45.5898V44.9102C86.375 45.793 85.3477 46.2344 84.0742 46.2344C82.5508 46.2344 81.3164 45.6406 80.3711 44.4531C79.4336 43.2578 78.9648 41.6758 78.9648 39.707V39.5664ZM82.3516 39.8125C82.3516 40.9609 82.582 41.8633 83.043 42.5195C83.5039 43.168 84.1367 43.4922 84.9414 43.4922C85.9727 43.4922 86.7109 43.1055 87.1562 42.332V37C86.7031 36.2266 85.9727 35.8398 84.9648 35.8398C84.1523 35.8398 83.5117 36.1719 83.043 36.8359C82.582 37.5 82.3516 38.4922 82.3516 39.8125Z" fill="#FFFDFD"/>
</svg>
