<svg width="96" height="57" viewBox="0 0 96 57" fill="none" xmlns="http://www.w3.org/2000/svg">
<mask id="path-1-outside-1" maskUnits="userSpaceOnUse" x="0" y="0" width="96" height="57" fill="black">
<rect fill="white" width="96" height="57"/>
<path d="M28.8516 20.0625H25.3359V12.75H18.4805V20.0625H14.9648V3H18.4805V9.91406H25.3359V3H28.8516V20.0625Z"/>
<path d="M31.1836 13.6055C31.1836 12.3477 31.4258 11.2266 31.9102 10.2422C32.3945 9.25781 33.0898 8.49609 33.9961 7.95703C34.9102 7.41797 35.9688 7.14844 37.1719 7.14844C38.8828 7.14844 40.2773 7.67188 41.3555 8.71875C42.4414 9.76562 43.0469 11.1875 43.1719 12.9844L43.1953 13.8516C43.1953 15.7969 42.6523 17.3594 41.5664 18.5391C40.4805 19.7109 39.0234 20.2969 37.1953 20.2969C35.3672 20.2969 33.9062 19.7109 32.8125 18.5391C31.7266 17.3672 31.1836 15.7734 31.1836 13.7578V13.6055ZM34.5703 13.8516C34.5703 15.0547 34.7969 15.9766 35.25 16.6172C35.7031 17.25 36.3516 17.5664 37.1953 17.5664C38.0156 17.5664 38.6562 17.2539 39.1172 16.6289C39.5781 15.9961 39.8086 14.9883 39.8086 13.6055C39.8086 12.4258 39.5781 11.5117 39.1172 10.8633C38.6562 10.2148 38.0078 9.89062 37.1719 9.89062C36.3438 9.89062 35.7031 10.2148 35.25 10.8633C34.7969 11.5039 34.5703 12.5 34.5703 13.8516Z"/>
<path d="M52.875 18.7734C52.0391 19.7891 50.8828 20.2969 49.4062 20.2969C48.0469 20.2969 47.0078 19.9062 46.2891 19.125C45.5781 18.3438 45.2148 17.1992 45.1992 15.6914V7.38281H48.5859V15.5742C48.5859 16.8945 49.1875 17.5547 50.3906 17.5547C51.5391 17.5547 52.3281 17.1562 52.7578 16.3594V7.38281H56.1562V20.0625H52.9688L52.875 18.7734Z"/>
<path d="M65.5781 16.5586C65.5781 16.1445 65.3711 15.8203 64.957 15.5859C64.5508 15.3438 63.8945 15.1289 62.9883 14.9414C59.9727 14.3086 58.4648 13.0273 58.4648 11.0977C58.4648 9.97266 58.9297 9.03516 59.8594 8.28516C60.7969 7.52734 62.0195 7.14844 63.5273 7.14844C65.1367 7.14844 66.4219 7.52734 67.3828 8.28516C68.3516 9.04297 68.8359 10.0273 68.8359 11.2383H65.4492C65.4492 10.7539 65.293 10.3555 64.9805 10.043C64.668 9.72266 64.1797 9.5625 63.5156 9.5625C62.9453 9.5625 62.5039 9.69141 62.1914 9.94922C61.8789 10.207 61.7227 10.5352 61.7227 10.9336C61.7227 11.3086 61.8984 11.6133 62.25 11.8477C62.6094 12.0742 63.2109 12.2734 64.0547 12.4453C64.8984 12.6094 65.6094 12.7969 66.1875 13.0078C67.9766 13.6641 68.8711 14.8008 68.8711 16.418C68.8711 17.5742 68.375 18.5117 67.3828 19.2305C66.3906 19.9414 65.1094 20.2969 63.5391 20.2969C62.4766 20.2969 61.5312 20.1094 60.7031 19.7344C59.8828 19.3516 59.2383 18.832 58.7695 18.1758C58.3008 17.5117 58.0664 16.7969 58.0664 16.0312H61.2773C61.3086 16.6328 61.5312 17.0938 61.9453 17.4141C62.3594 17.7344 62.9141 17.8945 63.6094 17.8945C64.2578 17.8945 64.7461 17.7734 65.0742 17.5312C65.4102 17.2812 65.5781 16.957 65.5781 16.5586Z"/>
<path d="M76.8984 20.2969C75.0391 20.2969 73.5234 19.7266 72.3516 18.5859C71.1875 17.4453 70.6055 15.9258 70.6055 14.0273V13.6992C70.6055 12.4258 70.8516 11.2891 71.3438 10.2891C71.8359 9.28125 72.5312 8.50781 73.4297 7.96875C74.3359 7.42188 75.3672 7.14844 76.5234 7.14844C78.2578 7.14844 79.6211 7.69531 80.6133 8.78906C81.6133 9.88281 82.1133 11.4336 82.1133 13.4414V14.8242H74.0391C74.1484 15.6523 74.4766 16.3164 75.0234 16.8164C75.5781 17.3164 76.2773 17.5664 77.1211 17.5664C78.4258 17.5664 79.4453 17.0938 80.1797 16.1484L81.8438 18.0117C81.3359 18.7305 80.6484 19.293 79.7812 19.6992C78.9141 20.0977 77.9531 20.2969 76.8984 20.2969ZM76.5117 9.89062C75.8398 9.89062 75.293 10.1172 74.8711 10.5703C74.457 11.0234 74.1914 11.6719 74.0742 12.5156H78.7852V12.2461C78.7695 11.4961 78.5664 10.918 78.1758 10.5117C77.7852 10.0977 77.2305 9.89062 76.5117 9.89062Z"/>
<path d="M8.80078 45.5664C9.42578 45.5664 9.93359 45.3945 10.3242 45.0508C10.7148 44.707 10.918 44.25 10.9336 43.6797H14.1094C14.1016 44.5391 13.8672 45.3281 13.4062 46.0469C12.9453 46.7578 12.3125 47.3125 11.5078 47.7109C10.7109 48.1016 9.82812 48.2969 8.85938 48.2969C7.04688 48.2969 5.61719 47.7227 4.57031 46.5742C3.52344 45.418 3 43.8242 3 41.793V41.5703C3 39.6172 3.51953 38.0586 4.55859 36.8945C5.59766 35.7305 7.02344 35.1484 8.83594 35.1484C10.4219 35.1484 11.6914 35.6016 12.6445 36.5078C13.6055 37.4062 14.0938 38.6055 14.1094 40.1055H10.9336C10.918 39.4492 10.7148 38.918 10.3242 38.5117C9.93359 38.0977 9.41797 37.8906 8.77734 37.8906C7.98828 37.8906 7.39062 38.1797 6.98438 38.7578C6.58594 39.3281 6.38672 40.2578 6.38672 41.5469V41.8984C6.38672 43.2031 6.58594 44.1406 6.98438 44.7109C7.38281 45.2812 7.98828 45.5664 8.80078 45.5664Z"/>
<path d="M19.6172 48.0625H16.2188V30.0625H19.6172V48.0625Z"/>
<path d="M28.2539 48.2969C26.3945 48.2969 24.8789 47.7266 23.707 46.5859C22.543 45.4453 21.9609 43.9258 21.9609 42.0273V41.6992C21.9609 40.4258 22.207 39.2891 22.6992 38.2891C23.1914 37.2812 23.8867 36.5078 24.7852 35.9688C25.6914 35.4219 26.7227 35.1484 27.8789 35.1484C29.6133 35.1484 30.9766 35.6953 31.9688 36.7891C32.9688 37.8828 33.4688 39.4336 33.4688 41.4414V42.8242H25.3945C25.5039 43.6523 25.832 44.3164 26.3789 44.8164C26.9336 45.3164 27.6328 45.5664 28.4766 45.5664C29.7812 45.5664 30.8008 45.0938 31.5352 44.1484L33.1992 46.0117C32.6914 46.7305 32.0039 47.293 31.1367 47.6992C30.2695 48.0977 29.3086 48.2969 28.2539 48.2969ZM27.8672 37.8906C27.1953 37.8906 26.6484 38.1172 26.2266 38.5703C25.8125 39.0234 25.5469 39.6719 25.4297 40.5156H30.1406V40.2461C30.125 39.4961 29.9219 38.918 29.5312 38.5117C29.1406 38.0977 28.5859 37.8906 27.8672 37.8906Z"/>
<path d="M42.75 48.0625C42.5938 47.7578 42.4805 47.3789 42.4102 46.9258C41.5898 47.8398 40.5234 48.2969 39.2109 48.2969C37.9688 48.2969 36.9375 47.9375 36.1172 47.2188C35.3047 46.5 34.8984 45.5938 34.8984 44.5C34.8984 43.1562 35.3945 42.125 36.3867 41.4062C37.3867 40.6875 38.8281 40.3242 40.7109 40.3164H42.2695V39.5898C42.2695 39.0039 42.1172 38.5352 41.8125 38.1836C41.5156 37.832 41.043 37.6562 40.3945 37.6562C39.8242 37.6562 39.375 37.793 39.0469 38.0664C38.7266 38.3398 38.5664 38.7148 38.5664 39.1914H35.1797C35.1797 38.457 35.4062 37.7773 35.8594 37.1523C36.3125 36.5273 36.9531 36.0391 37.7812 35.6875C38.6094 35.3281 39.5391 35.1484 40.5703 35.1484C42.1328 35.1484 43.3711 35.543 44.2852 36.332C45.207 37.1133 45.668 38.2148 45.668 39.6367V45.1328C45.6758 46.3359 45.8438 47.2461 46.1719 47.8633V48.0625H42.75ZM39.9492 45.707C40.4492 45.707 40.9102 45.5977 41.332 45.3789C41.7539 45.1523 42.0664 44.8516 42.2695 44.4766V42.2969H41.0039C39.3086 42.2969 38.4062 42.8828 38.2969 44.0547L38.2852 44.2539C38.2852 44.6758 38.4336 45.0234 38.7305 45.2969C39.0273 45.5703 39.4336 45.707 39.9492 45.707Z"/>
<path d="M51.3867 35.3828L51.4922 36.8477C52.3984 35.7148 53.6133 35.1484 55.1367 35.1484C56.4805 35.1484 57.4805 35.543 58.1367 36.332C58.793 37.1211 59.1289 38.3008 59.1445 39.8711V48.0625H55.7578V39.9531C55.7578 39.2344 55.6016 38.7148 55.2891 38.3945C54.9766 38.0664 54.457 37.9023 53.7305 37.9023C52.7773 37.9023 52.0625 38.3086 51.5859 39.1211V48.0625H48.1992V35.3828H51.3867Z"/>
<path d="M65.2969 48.0625H61.8984V35.3828H65.2969V48.0625ZM61.6992 32.1016C61.6992 31.5938 61.8672 31.1758 62.2031 30.8477C62.5469 30.5195 63.0117 30.3555 63.5977 30.3555C64.1758 30.3555 64.6367 30.5195 64.9805 30.8477C65.3242 31.1758 65.4961 31.5938 65.4961 32.1016C65.4961 32.6172 65.3203 33.0391 64.9688 33.3672C64.625 33.6953 64.168 33.8594 63.5977 33.8594C63.0273 33.8594 62.5664 33.6953 62.2148 33.3672C61.8711 33.0391 61.6992 32.6172 61.6992 32.1016Z"/>
<path d="M71.2148 35.3828L71.3203 36.8477C72.2266 35.7148 73.4414 35.1484 74.9648 35.1484C76.3086 35.1484 77.3086 35.543 77.9648 36.332C78.6211 37.1211 78.957 38.3008 78.9727 39.8711V48.0625H75.5859V39.9531C75.5859 39.2344 75.4297 38.7148 75.1172 38.3945C74.8047 38.0664 74.2852 37.9023 73.5586 37.9023C72.6055 37.9023 71.8906 38.3086 71.4141 39.1211V48.0625H68.0273V35.3828H71.2148Z"/>
<path d="M81.0586 41.6289C81.0586 39.6836 81.5195 38.1172 82.4414 36.9297C83.3711 35.7422 84.6211 35.1484 86.1914 35.1484C87.582 35.1484 88.6641 35.625 89.4375 36.5781L89.5781 35.3828H92.6484V47.6406C92.6484 48.75 92.3945 49.7148 91.8867 50.5352C91.3867 51.3555 90.6797 51.9805 89.7656 52.4102C88.8516 52.8398 87.7812 53.0547 86.5547 53.0547C85.625 53.0547 84.7188 52.8672 83.8359 52.4922C82.9531 52.125 82.2852 51.6484 81.832 51.0625L83.332 49C84.1758 49.9453 85.1992 50.418 86.4023 50.418C87.3008 50.418 88 50.1758 88.5 49.6914C89 49.2148 89.25 48.5352 89.25 47.6523V46.9727C88.4688 47.8555 87.4414 48.2969 86.168 48.2969C84.6445 48.2969 83.4102 47.7031 82.4648 46.5156C81.5273 45.3203 81.0586 43.7383 81.0586 41.7695V41.6289ZM84.4453 41.875C84.4453 43.0234 84.6758 43.9258 85.1367 44.582C85.5977 45.2305 86.2305 45.5547 87.0352 45.5547C88.0664 45.5547 88.8047 45.168 89.25 44.3945V39.0625C88.7969 38.2891 88.0664 37.9023 87.0586 37.9023C86.2461 37.9023 85.6055 38.2344 85.1367 38.8984C84.6758 39.5625 84.4453 40.5547 84.4453 41.875Z"/>
</mask>
<path d="M28.8516 20.0625H25.3359V12.75H18.4805V20.0625H14.9648V3H18.4805V9.91406H25.3359V3H28.8516V20.0625Z" fill="#FFFDFD"/>
<path d="M31.1836 13.6055C31.1836 12.3477 31.4258 11.2266 31.9102 10.2422C32.3945 9.25781 33.0898 8.49609 33.9961 7.95703C34.9102 7.41797 35.9688 7.14844 37.1719 7.14844C38.8828 7.14844 40.2773 7.67188 41.3555 8.71875C42.4414 9.76562 43.0469 11.1875 43.1719 12.9844L43.1953 13.8516C43.1953 15.7969 42.6523 17.3594 41.5664 18.5391C40.4805 19.7109 39.0234 20.2969 37.1953 20.2969C35.3672 20.2969 33.9062 19.7109 32.8125 18.5391C31.7266 17.3672 31.1836 15.7734 31.1836 13.7578V13.6055ZM34.5703 13.8516C34.5703 15.0547 34.7969 15.9766 35.25 16.6172C35.7031 17.25 36.3516 17.5664 37.1953 17.5664C38.0156 17.5664 38.6562 17.2539 39.1172 16.6289C39.5781 15.9961 39.8086 14.9883 39.8086 13.6055C39.8086 12.4258 39.5781 11.5117 39.1172 10.8633C38.6562 10.2148 38.0078 9.89062 37.1719 9.89062C36.3438 9.89062 35.7031 10.2148 35.25 10.8633C34.7969 11.5039 34.5703 12.5 34.5703 13.8516Z" fill="#FFFDFD"/>
<path d="M52.875 18.7734C52.0391 19.7891 50.8828 20.2969 49.4062 20.2969C48.0469 20.2969 47.0078 19.9062 46.2891 19.125C45.5781 18.3438 45.2148 17.1992 45.1992 15.6914V7.38281H48.5859V15.5742C48.5859 16.8945 49.1875 17.5547 50.3906 17.5547C51.5391 17.5547 52.3281 17.1562 52.7578 16.3594V7.38281H56.1562V20.0625H52.9688L52.875 18.7734Z" fill="#FFFDFD"/>
<path d="M65.5781 16.5586C65.5781 16.1445 65.3711 15.8203 64.957 15.5859C64.5508 15.3438 63.8945 15.1289 62.9883 14.9414C59.9727 14.3086 58.4648 13.0273 58.4648 11.0977C58.4648 9.97266 58.9297 9.03516 59.8594 8.28516C60.7969 7.52734 62.0195 7.14844 63.5273 7.14844C65.1367 7.14844 66.4219 7.52734 67.3828 8.28516C68.3516 9.04297 68.8359 10.0273 68.8359 11.2383H65.4492C65.4492 10.7539 65.293 10.3555 64.9805 10.043C64.668 9.72266 64.1797 9.5625 63.5156 9.5625C62.9453 9.5625 62.5039 9.69141 62.1914 9.94922C61.8789 10.207 61.7227 10.5352 61.7227 10.9336C61.7227 11.3086 61.8984 11.6133 62.25 11.8477C62.6094 12.0742 63.2109 12.2734 64.0547 12.4453C64.8984 12.6094 65.6094 12.7969 66.1875 13.0078C67.9766 13.6641 68.8711 14.8008 68.8711 16.418C68.8711 17.5742 68.375 18.5117 67.3828 19.2305C66.3906 19.9414 65.1094 20.2969 63.5391 20.2969C62.4766 20.2969 61.5312 20.1094 60.7031 19.7344C59.8828 19.3516 59.2383 18.832 58.7695 18.1758C58.3008 17.5117 58.0664 16.7969 58.0664 16.0312H61.2773C61.3086 16.6328 61.5312 17.0938 61.9453 17.4141C62.3594 17.7344 62.9141 17.8945 63.6094 17.8945C64.2578 17.8945 64.7461 17.7734 65.0742 17.5312C65.4102 17.2812 65.5781 16.957 65.5781 16.5586Z" fill="#FFFDFD"/>
<path d="M76.8984 20.2969C75.0391 20.2969 73.5234 19.7266 72.3516 18.5859C71.1875 17.4453 70.6055 15.9258 70.6055 14.0273V13.6992C70.6055 12.4258 70.8516 11.2891 71.3438 10.2891C71.8359 9.28125 72.5312 8.50781 73.4297 7.96875C74.3359 7.42188 75.3672 7.14844 76.5234 7.14844C78.2578 7.14844 79.6211 7.69531 80.6133 8.78906C81.6133 9.88281 82.1133 11.4336 82.1133 13.4414V14.8242H74.0391C74.1484 15.6523 74.4766 16.3164 75.0234 16.8164C75.5781 17.3164 76.2773 17.5664 77.1211 17.5664C78.4258 17.5664 79.4453 17.0938 80.1797 16.1484L81.8438 18.0117C81.3359 18.7305 80.6484 19.293 79.7812 19.6992C78.9141 20.0977 77.9531 20.2969 76.8984 20.2969ZM76.5117 9.89062C75.8398 9.89062 75.293 10.1172 74.8711 10.5703C74.457 11.0234 74.1914 11.6719 74.0742 12.5156H78.7852V12.2461C78.7695 11.4961 78.5664 10.918 78.1758 10.5117C77.7852 10.0977 77.2305 9.89062 76.5117 9.89062Z" fill="#FFFDFD"/>
<path d="M8.80078 45.5664C9.42578 45.5664 9.93359 45.3945 10.3242 45.0508C10.7148 44.707 10.918 44.25 10.9336 43.6797H14.1094C14.1016 44.5391 13.8672 45.3281 13.4062 46.0469C12.9453 46.7578 12.3125 47.3125 11.5078 47.7109C10.7109 48.1016 9.82812 48.2969 8.85938 48.2969C7.04688 48.2969 5.61719 47.7227 4.57031 46.5742C3.52344 45.418 3 43.8242 3 41.793V41.5703C3 39.6172 3.51953 38.0586 4.55859 36.8945C5.59766 35.7305 7.02344 35.1484 8.83594 35.1484C10.4219 35.1484 11.6914 35.6016 12.6445 36.5078C13.6055 37.4062 14.0938 38.6055 14.1094 40.1055H10.9336C10.918 39.4492 10.7148 38.918 10.3242 38.5117C9.93359 38.0977 9.41797 37.8906 8.77734 37.8906C7.98828 37.8906 7.39062 38.1797 6.98438 38.7578C6.58594 39.3281 6.38672 40.2578 6.38672 41.5469V41.8984C6.38672 43.2031 6.58594 44.1406 6.98438 44.7109C7.38281 45.2812 7.98828 45.5664 8.80078 45.5664Z" fill="#FFFDFD"/>
<path d="M19.6172 48.0625H16.2188V30.0625H19.6172V48.0625Z" fill="#FFFDFD"/>
<path d="M28.2539 48.2969C26.3945 48.2969 24.8789 47.7266 23.707 46.5859C22.543 45.4453 21.9609 43.9258 21.9609 42.0273V41.6992C21.9609 40.4258 22.207 39.2891 22.6992 38.2891C23.1914 37.2812 23.8867 36.5078 24.7852 35.9688C25.6914 35.4219 26.7227 35.1484 27.8789 35.1484C29.6133 35.1484 30.9766 35.6953 31.9688 36.7891C32.9688 37.8828 33.4688 39.4336 33.4688 41.4414V42.8242H25.3945C25.5039 43.6523 25.832 44.3164 26.3789 44.8164C26.9336 45.3164 27.6328 45.5664 28.4766 45.5664C29.7812 45.5664 30.8008 45.0938 31.5352 44.1484L33.1992 46.0117C32.6914 46.7305 32.0039 47.293 31.1367 47.6992C30.2695 48.0977 29.3086 48.2969 28.2539 48.2969ZM27.8672 37.8906C27.1953 37.8906 26.6484 38.1172 26.2266 38.5703C25.8125 39.0234 25.5469 39.6719 25.4297 40.5156H30.1406V40.2461C30.125 39.4961 29.9219 38.918 29.5312 38.5117C29.1406 38.0977 28.5859 37.8906 27.8672 37.8906Z" fill="#FFFDFD"/>
<path d="M42.75 48.0625C42.5938 47.7578 42.4805 47.3789 42.4102 46.9258C41.5898 47.8398 40.5234 48.2969 39.2109 48.2969C37.9688 48.2969 36.9375 47.9375 36.1172 47.2188C35.3047 46.5 34.8984 45.5938 34.8984 44.5C34.8984 43.1562 35.3945 42.125 36.3867 41.4062C37.3867 40.6875 38.8281 40.3242 40.7109 40.3164H42.2695V39.5898C42.2695 39.0039 42.1172 38.5352 41.8125 38.1836C41.5156 37.832 41.043 37.6562 40.3945 37.6562C39.8242 37.6562 39.375 37.793 39.0469 38.0664C38.7266 38.3398 38.5664 38.7148 38.5664 39.1914H35.1797C35.1797 38.457 35.4062 37.7773 35.8594 37.1523C36.3125 36.5273 36.9531 36.0391 37.7812 35.6875C38.6094 35.3281 39.5391 35.1484 40.5703 35.1484C42.1328 35.1484 43.3711 35.543 44.2852 36.332C45.207 37.1133 45.668 38.2148 45.668 39.6367V45.1328C45.6758 46.3359 45.8438 47.2461 46.1719 47.8633V48.0625H42.75ZM39.9492 45.707C40.4492 45.707 40.9102 45.5977 41.332 45.3789C41.7539 45.1523 42.0664 44.8516 42.2695 44.4766V42.2969H41.0039C39.3086 42.2969 38.4062 42.8828 38.2969 44.0547L38.2852 44.2539C38.2852 44.6758 38.4336 45.0234 38.7305 45.2969C39.0273 45.5703 39.4336 45.707 39.9492 45.707Z" fill="#FFFDFD"/>
<path d="M51.3867 35.3828L51.4922 36.8477C52.3984 35.7148 53.6133 35.1484 55.1367 35.1484C56.4805 35.1484 57.4805 35.543 58.1367 36.332C58.793 37.1211 59.1289 38.3008 59.1445 39.8711V48.0625H55.7578V39.9531C55.7578 39.2344 55.6016 38.7148 55.2891 38.3945C54.9766 38.0664 54.457 37.9023 53.7305 37.9023C52.7773 37.9023 52.0625 38.3086 51.5859 39.1211V48.0625H48.1992V35.3828H51.3867Z" fill="#FFFDFD"/>
<path d="M65.2969 48.0625H61.8984V35.3828H65.2969V48.0625ZM61.6992 32.1016C61.6992 31.5938 61.8672 31.1758 62.2031 30.8477C62.5469 30.5195 63.0117 30.3555 63.5977 30.3555C64.1758 30.3555 64.6367 30.5195 64.9805 30.8477C65.3242 31.1758 65.4961 31.5938 65.4961 32.1016C65.4961 32.6172 65.3203 33.0391 64.9688 33.3672C64.625 33.6953 64.168 33.8594 63.5977 33.8594C63.0273 33.8594 62.5664 33.6953 62.2148 33.3672C61.8711 33.0391 61.6992 32.6172 61.6992 32.1016Z" fill="#FFFDFD"/>
<path d="M71.2148 35.3828L71.3203 36.8477C72.2266 35.7148 73.4414 35.1484 74.9648 35.1484C76.3086 35.1484 77.3086 35.543 77.9648 36.332C78.6211 37.1211 78.957 38.3008 78.9727 39.8711V48.0625H75.5859V39.9531C75.5859 39.2344 75.4297 38.7148 75.1172 38.3945C74.8047 38.0664 74.2852 37.9023 73.5586 37.9023C72.6055 37.9023 71.8906 38.3086 71.4141 39.1211V48.0625H68.0273V35.3828H71.2148Z" fill="#FFFDFD"/>
<path d="M81.0586 41.6289C81.0586 39.6836 81.5195 38.1172 82.4414 36.9297C83.3711 35.7422 84.6211 35.1484 86.1914 35.1484C87.582 35.1484 88.6641 35.625 89.4375 36.5781L89.5781 35.3828H92.6484V47.6406C92.6484 48.75 92.3945 49.7148 91.8867 50.5352C91.3867 51.3555 90.6797 51.9805 89.7656 52.4102C88.8516 52.8398 87.7812 53.0547 86.5547 53.0547C85.625 53.0547 84.7188 52.8672 83.8359 52.4922C82.9531 52.125 82.2852 51.6484 81.832 51.0625L83.332 49C84.1758 49.9453 85.1992 50.418 86.4023 50.418C87.3008 50.418 88 50.1758 88.5 49.6914C89 49.2148 89.25 48.5352 89.25 47.6523V46.9727C88.4688 47.8555 87.4414 48.2969 86.168 48.2969C84.6445 48.2969 83.4102 47.7031 82.4648 46.5156C81.5273 45.3203 81.0586 43.7383 81.0586 41.7695V41.6289ZM84.4453 41.875C84.4453 43.0234 84.6758 43.9258 85.1367 44.582C85.5977 45.2305 86.2305 45.5547 87.0352 45.5547C88.0664 45.5547 88.8047 45.168 89.25 44.3945V39.0625C88.7969 38.2891 88.0664 37.9023 87.0586 37.9023C86.2461 37.9023 85.6055 38.2344 85.1367 38.8984C84.6758 39.5625 84.4453 40.5547 84.4453 41.875Z" fill="#FFFDFD"/>
<path d="M28.8516 20.0625H25.3359V12.75H18.4805V20.0625H14.9648V3H18.4805V9.91406H25.3359V3H28.8516V20.0625Z" stroke="#0D5701" stroke-width="6" mask="url(#path-1-outside-1)"/>
<path d="M31.1836 13.6055C31.1836 12.3477 31.4258 11.2266 31.9102 10.2422C32.3945 9.25781 33.0898 8.49609 33.9961 7.95703C34.9102 7.41797 35.9688 7.14844 37.1719 7.14844C38.8828 7.14844 40.2773 7.67188 41.3555 8.71875C42.4414 9.76562 43.0469 11.1875 43.1719 12.9844L43.1953 13.8516C43.1953 15.7969 42.6523 17.3594 41.5664 18.5391C40.4805 19.7109 39.0234 20.2969 37.1953 20.2969C35.3672 20.2969 33.9062 19.7109 32.8125 18.5391C31.7266 17.3672 31.1836 15.7734 31.1836 13.7578V13.6055ZM34.5703 13.8516C34.5703 15.0547 34.7969 15.9766 35.25 16.6172C35.7031 17.25 36.3516 17.5664 37.1953 17.5664C38.0156 17.5664 38.6562 17.2539 39.1172 16.6289C39.5781 15.9961 39.8086 14.9883 39.8086 13.6055C39.8086 12.4258 39.5781 11.5117 39.1172 10.8633C38.6562 10.2148 38.0078 9.89062 37.1719 9.89062C36.3438 9.89062 35.7031 10.2148 35.25 10.8633C34.7969 11.5039 34.5703 12.5 34.5703 13.8516Z" stroke="#0D5701" stroke-width="6" mask="url(#path-1-outside-1)"/>
<path d="M52.875 18.7734C52.0391 19.7891 50.8828 20.2969 49.4062 20.2969C48.0469 20.2969 47.0078 19.9062 46.2891 19.125C45.5781 18.3438 45.2148 17.1992 45.1992 15.6914V7.38281H48.5859V15.5742C48.5859 16.8945 49.1875 17.5547 50.3906 17.5547C51.5391 17.5547 52.3281 17.1562 52.7578 16.3594V7.38281H56.1562V20.0625H52.9688L52.875 18.7734Z" stroke="#0D5701" stroke-width="6" mask="url(#path-1-outside-1)"/>
<path d="M65.5781 16.5586C65.5781 16.1445 65.3711 15.8203 64.957 15.5859C64.5508 15.3438 63.8945 15.1289 62.9883 14.9414C59.9727 14.3086 58.4648 13.0273 58.4648 11.0977C58.4648 9.97266 58.9297 9.03516 59.8594 8.28516C60.7969 7.52734 62.0195 7.14844 63.5273 7.14844C65.1367 7.14844 66.4219 7.52734 67.3828 8.28516C68.3516 9.04297 68.8359 10.0273 68.8359 11.2383H65.4492C65.4492 10.7539 65.293 10.3555 64.9805 10.043C64.668 9.72266 64.1797 9.5625 63.5156 9.5625C62.9453 9.5625 62.5039 9.69141 62.1914 9.94922C61.8789 10.207 61.7227 10.5352 61.7227 10.9336C61.7227 11.3086 61.8984 11.6133 62.25 11.8477C62.6094 12.0742 63.2109 12.2734 64.0547 12.4453C64.8984 12.6094 65.6094 12.7969 66.1875 13.0078C67.9766 13.6641 68.8711 14.8008 68.8711 16.418C68.8711 17.5742 68.375 18.5117 67.3828 19.2305C66.3906 19.9414 65.1094 20.2969 63.5391 20.2969C62.4766 20.2969 61.5312 20.1094 60.7031 19.7344C59.8828 19.3516 59.2383 18.832 58.7695 18.1758C58.3008 17.5117 58.0664 16.7969 58.0664 16.0312H61.2773C61.3086 16.6328 61.5312 17.0938 61.9453 17.4141C62.3594 17.7344 62.9141 17.8945 63.6094 17.8945C64.2578 17.8945 64.7461 17.7734 65.0742 17.5312C65.4102 17.2812 65.5781 16.957 65.5781 16.5586Z" stroke="#0D5701" stroke-width="6" mask="url(#path-1-outside-1)"/>
<path d="M76.8984 20.2969C75.0391 20.2969 73.5234 19.7266 72.3516 18.5859C71.1875 17.4453 70.6055 15.9258 70.6055 14.0273V13.6992C70.6055 12.4258 70.8516 11.2891 71.3438 10.2891C71.8359 9.28125 72.5312 8.50781 73.4297 7.96875C74.3359 7.42188 75.3672 7.14844 76.5234 7.14844C78.2578 7.14844 79.6211 7.69531 80.6133 8.78906C81.6133 9.88281 82.1133 11.4336 82.1133 13.4414V14.8242H74.0391C74.1484 15.6523 74.4766 16.3164 75.0234 16.8164C75.5781 17.3164 76.2773 17.5664 77.1211 17.5664C78.4258 17.5664 79.4453 17.0938 80.1797 16.1484L81.8438 18.0117C81.3359 18.7305 80.6484 19.293 79.7812 19.6992C78.9141 20.0977 77.9531 20.2969 76.8984 20.2969ZM76.5117 9.89062C75.8398 9.89062 75.293 10.1172 74.8711 10.5703C74.457 11.0234 74.1914 11.6719 74.0742 12.5156H78.7852V12.2461C78.7695 11.4961 78.5664 10.918 78.1758 10.5117C77.7852 10.0977 77.2305 9.89062 76.5117 9.89062Z" stroke="#0D5701" stroke-width="6" mask="url(#path-1-outside-1)"/>
<path d="M8.80078 45.5664C9.42578 45.5664 9.93359 45.3945 10.3242 45.0508C10.7148 44.707 10.918 44.25 10.9336 43.6797H14.1094C14.1016 44.5391 13.8672 45.3281 13.4062 46.0469C12.9453 46.7578 12.3125 47.3125 11.5078 47.7109C10.7109 48.1016 9.82812 48.2969 8.85938 48.2969C7.04688 48.2969 5.61719 47.7227 4.57031 46.5742C3.52344 45.418 3 43.8242 3 41.793V41.5703C3 39.6172 3.51953 38.0586 4.55859 36.8945C5.59766 35.7305 7.02344 35.1484 8.83594 35.1484C10.4219 35.1484 11.6914 35.6016 12.6445 36.5078C13.6055 37.4062 14.0938 38.6055 14.1094 40.1055H10.9336C10.918 39.4492 10.7148 38.918 10.3242 38.5117C9.93359 38.0977 9.41797 37.8906 8.77734 37.8906C7.98828 37.8906 7.39062 38.1797 6.98438 38.7578C6.58594 39.3281 6.38672 40.2578 6.38672 41.5469V41.8984C6.38672 43.2031 6.58594 44.1406 6.98438 44.7109C7.38281 45.2812 7.98828 45.5664 8.80078 45.5664Z" stroke="#0D5701" stroke-width="6" mask="url(#path-1-outside-1)"/>
<path d="M19.6172 48.0625H16.2188V30.0625H19.6172V48.0625Z" stroke="#0D5701" stroke-width="6" mask="url(#path-1-outside-1)"/>
<path d="M28.2539 48.2969C26.3945 48.2969 24.8789 47.7266 23.707 46.5859C22.543 45.4453 21.9609 43.9258 21.9609 42.0273V41.6992C21.9609 40.4258 22.207 39.2891 22.6992 38.2891C23.1914 37.2812 23.8867 36.5078 24.7852 35.9688C25.6914 35.4219 26.7227 35.1484 27.8789 35.1484C29.6133 35.1484 30.9766 35.6953 31.9688 36.7891C32.9688 37.8828 33.4688 39.4336 33.4688 41.4414V42.8242H25.3945C25.5039 43.6523 25.832 44.3164 26.3789 44.8164C26.9336 45.3164 27.6328 45.5664 28.4766 45.5664C29.7812 45.5664 30.8008 45.0938 31.5352 44.1484L33.1992 46.0117C32.6914 46.7305 32.0039 47.293 31.1367 47.6992C30.2695 48.0977 29.3086 48.2969 28.2539 48.2969ZM27.8672 37.8906C27.1953 37.8906 26.6484 38.1172 26.2266 38.5703C25.8125 39.0234 25.5469 39.6719 25.4297 40.5156H30.1406V40.2461C30.125 39.4961 29.9219 38.918 29.5312 38.5117C29.1406 38.0977 28.5859 37.8906 27.8672 37.8906Z" stroke="#0D5701" stroke-width="6" mask="url(#path-1-outside-1)"/>
<path d="M42.75 48.0625C42.5938 47.7578 42.4805 47.3789 42.4102 46.9258C41.5898 47.8398 40.5234 48.2969 39.2109 48.2969C37.9688 48.2969 36.9375 47.9375 36.1172 47.2188C35.3047 46.5 34.8984 45.5938 34.8984 44.5C34.8984 43.1562 35.3945 42.125 36.3867 41.4062C37.3867 40.6875 38.8281 40.3242 40.7109 40.3164H42.2695V39.5898C42.2695 39.0039 42.1172 38.5352 41.8125 38.1836C41.5156 37.832 41.043 37.6562 40.3945 37.6562C39.8242 37.6562 39.375 37.793 39.0469 38.0664C38.7266 38.3398 38.5664 38.7148 38.5664 39.1914H35.1797C35.1797 38.457 35.4062 37.7773 35.8594 37.1523C36.3125 36.5273 36.9531 36.0391 37.7812 35.6875C38.6094 35.3281 39.5391 35.1484 40.5703 35.1484C42.1328 35.1484 43.3711 35.543 44.2852 36.332C45.207 37.1133 45.668 38.2148 45.668 39.6367V45.1328C45.6758 46.3359 45.8438 47.2461 46.1719 47.8633V48.0625H42.75ZM39.9492 45.707C40.4492 45.707 40.9102 45.5977 41.332 45.3789C41.7539 45.1523 42.0664 44.8516 42.2695 44.4766V42.2969H41.0039C39.3086 42.2969 38.4062 42.8828 38.2969 44.0547L38.2852 44.2539C38.2852 44.6758 38.4336 45.0234 38.7305 45.2969C39.0273 45.5703 39.4336 45.707 39.9492 45.707Z" stroke="#0D5701" stroke-width="6" mask="url(#path-1-outside-1)"/>
<path d="M51.3867 35.3828L51.4922 36.8477C52.3984 35.7148 53.6133 35.1484 55.1367 35.1484C56.4805 35.1484 57.4805 35.543 58.1367 36.332C58.793 37.1211 59.1289 38.3008 59.1445 39.8711V48.0625H55.7578V39.9531C55.7578 39.2344 55.6016 38.7148 55.2891 38.3945C54.9766 38.0664 54.457 37.9023 53.7305 37.9023C52.7773 37.9023 52.0625 38.3086 51.5859 39.1211V48.0625H48.1992V35.3828H51.3867Z" stroke="#0D5701" stroke-width="6" mask="url(#path-1-outside-1)"/>
<path d="M65.2969 48.0625H61.8984V35.3828H65.2969V48.0625ZM61.6992 32.1016C61.6992 31.5938 61.8672 31.1758 62.2031 30.8477C62.5469 30.5195 63.0117 30.3555 63.5977 30.3555C64.1758 30.3555 64.6367 30.5195 64.9805 30.8477C65.3242 31.1758 65.4961 31.5938 65.4961 32.1016C65.4961 32.6172 65.3203 33.0391 64.9688 33.3672C64.625 33.6953 64.168 33.8594 63.5977 33.8594C63.0273 33.8594 62.5664 33.6953 62.2148 33.3672C61.8711 33.0391 61.6992 32.6172 61.6992 32.1016Z" stroke="#0D5701" stroke-width="6" mask="url(#path-1-outside-1)"/>
<path d="M71.2148 35.3828L71.3203 36.8477C72.2266 35.7148 73.4414 35.1484 74.9648 35.1484C76.3086 35.1484 77.3086 35.543 77.9648 36.332C78.6211 37.1211 78.957 38.3008 78.9727 39.8711V48.0625H75.5859V39.9531C75.5859 39.2344 75.4297 38.7148 75.1172 38.3945C74.8047 38.0664 74.2852 37.9023 73.5586 37.9023C72.6055 37.9023 71.8906 38.3086 71.4141 39.1211V48.0625H68.0273V35.3828H71.2148Z" stroke="#0D5701" stroke-width="6" mask="url(#path-1-outside-1)"/>
<path d="M81.0586 41.6289C81.0586 39.6836 81.5195 38.1172 82.4414 36.9297C83.3711 35.7422 84.6211 35.1484 86.1914 35.1484C87.582 35.1484 88.6641 35.625 89.4375 36.5781L89.5781 35.3828H92.6484V47.6406C92.6484 48.75 92.3945 49.7148 91.8867 50.5352C91.3867 51.3555 90.6797 51.9805 89.7656 52.4102C88.8516 52.8398 87.7812 53.0547 86.5547 53.0547C85.625 53.0547 84.7188 52.8672 83.8359 52.4922C82.9531 52.125 82.2852 51.6484 81.832 51.0625L83.332 49C84.1758 49.9453 85.1992 50.418 86.4023 50.418C87.3008 50.418 88 50.1758 88.5 49.6914C89 49.2148 89.25 48.5352 89.25 47.6523V46.9727C88.4688 47.8555 87.4414 48.2969 86.168 48.2969C84.6445 48.2969 83.4102 47.7031 82.4648 46.5156C81.5273 45.3203 81.0586 43.7383 81.0586 41.7695V41.6289ZM84.4453 41.875C84.4453 43.0234 84.6758 43.9258 85.1367 44.582C85.5977 45.2305 86.2305 45.5547 87.0352 45.5547C88.0664 45.5547 88.8047 45.168 89.25 44.3945V39.0625C88.7969 38.2891 88.0664 37.9023 87.0586 37.9023C86.2461 37.9023 85.6055 38.2344 85.1367 38.8984C84.6758 39.5625 84.4453 40.5547 84.4453 41.875Z" stroke="#0D5701" stroke-width="6" mask="url(#path-1-outside-1)"/>
</svg>
