<?xml version="1.0" encoding="UTF-8"?>
<svg xmlns="http://www.w3.org/2000/svg" xmlns:xlink="http://www.w3.org/1999/xlink" width="49pt" height="130pt" viewBox="0 0 49 130" version="1.1">
<g id="surface1">
<path style="fill: #264B20;" d="M 24.5 0 C 33.519531 0 40.832031 7.277344 40.832031 16.25 C 40.832031 25.222656 33.519531 32.5 24.5 32.5 C 15.480469 32.5 8.167969 25.222656 8.167969 16.25 C 8.167969 7.277344 15.480469 0 24.5 0 M 36.75 36.5625 L 33.851562 36.5625 C 28.054688 39.214844 21.195312 39.328125 15.148438 36.5625 L 12.25 36.5625 C 5.484375 36.5625 0 42.019531 0 48.75 L 0 83.28125 C 0 86.648438 2.742188 89.375 6.125 89.375 L 10.207031 89.375 L 10.207031 123.90625 C 10.207031 127.273438 12.949219 130 16.332031 130 L 32.667969 130 C 36.050781 130 38.792969 127.273438 38.792969 123.90625 L 38.792969 89.375 L 42.875 89.375 C 46.257812 89.375 49 86.648438 49 83.28125 L 49 48.75 C 49 42.019531 43.515625 36.5625 36.75 36.5625 Z M 36.75 36.5625 "/>
</g>
</svg>
