<?xml version="1.0" encoding="UTF-8"?>
<svg xmlns="http://www.w3.org/2000/svg" xmlns:xlink="http://www.w3.org/1999/xlink" width="15pt" height="14pt" viewBox="0 0 15 14" version="1.1">
<g>
<path style="fill:#264B20;" d="M 7.5 0 C 5.6875 0 4.21875 1.542969 4.21875 3.445312 C 4.21875 4.984375 6.363281 7.789062 7.183594 8.804688 C 7.351562 9.011719 7.648438 9.011719 7.816406 8.804688 C 8.636719 7.789062 10.78125 4.984375 10.78125 3.445312 C 10.78125 1.542969 9.3125 0 7.5 0 Z M 7.5 4.59375 C 6.894531 4.59375 6.40625 4.078125 6.40625 3.445312 C 6.40625 2.8125 6.894531 2.296875 7.5 2.296875 C 8.105469 2.296875 8.59375 2.8125 8.59375 3.445312 C 8.59375 4.078125 8.105469 4.59375 7.5 4.59375 Z M 0.523438 5.90625 C 0.207031 6.039062 0 6.359375 0 6.71875 L 0 13.5625 C 0 13.871094 0.296875 14.082031 0.570312 13.96875 L 4.167969 12.25 L 4.167969 5.875 C 3.9375 5.441406 3.75 5.015625 3.613281 4.609375 Z M 7.5 9.835938 C 7.132812 9.835938 6.785156 9.664062 6.550781 9.371094 C 6.039062 8.738281 5.492188 8.015625 5 7.273438 L 5 12.25 L 10 14 L 10 7.273438 C 9.507812 8.015625 8.964844 8.738281 8.449219 9.371094 C 8.214844 9.664062 7.867188 9.835938 7.5 9.835938 Z M 14.429688 4.40625 L 10.832031 6.125 L 10.832031 14 L 14.476562 12.46875 C 14.792969 12.335938 15 12.015625 15 11.65625 L 15 4.8125 C 15 4.503906 14.703125 4.292969 14.429688 4.40625 Z M 14.429688 4.40625 "/>
</g>
</svg>
