<?xml version="1.0" encoding="UTF-8"?>
<svg xmlns="http://www.w3.org/2000/svg" xmlns:xlink="http://www.w3.org/1999/xlink" width="10pt" height="16pt" viewBox="0 0 10 16" version="1.1">
<g>
<path style="fill:#264B20;" d="M 8.5 0 L 1.5 0 C 0.671875 0 0 0.671875 0 1.5 L 0 14.5 C 0 15.328125 0.671875 16 1.5 16 L 8.5 16 C 9.328125 16 10 15.328125 10 14.5 L 10 1.5 C 10 0.671875 9.328125 0 8.5 0 Z M 5 15 C 4.445312 15 4 14.554688 4 14 C 4 13.445312 4.445312 13 5 13 C 5.554688 13 6 13.445312 6 14 C 6 14.554688 5.554688 15 5 15 Z M 8.5 11.625 C 8.5 11.832031 8.332031 12 8.125 12 L 1.875 12 C 1.667969 12 1.5 11.832031 1.5 11.625 L 1.5 1.875 C 1.5 1.667969 1.667969 1.5 1.875 1.5 L 8.125 1.5 C 8.332031 1.5 8.5 1.667969 8.5 1.875 Z M 8.5 11.625 "/>
</g>
</svg>
