<?xml version="1.0" encoding="UTF-8"?>
<svg xmlns="http://www.w3.org/2000/svg" xmlns:xlink="http://www.w3.org/1999/xlink" width="130pt" height="130pt" viewBox="0 0 130 130" version="1.1">
<g id="surface1">
<path style="fill:#B7CEB3;" d="M 26.40625 56.875 L 6.09375 56.875 C 2.726562 56.875 0 59.601562 0 62.96875 L 0 123.90625 C 0 127.273438 2.726562 130 6.09375 130 L 26.40625 130 C 29.773438 130 32.5 127.273438 32.5 123.90625 L 32.5 62.96875 C 32.5 59.601562 29.773438 56.875 26.40625 56.875 Z M 16.25 119.84375 C 12.882812 119.84375 10.15625 117.117188 10.15625 113.75 C 10.15625 110.382812 12.882812 107.65625 16.25 107.65625 C 19.617188 107.65625 22.34375 110.382812 22.34375 113.75 C 22.34375 117.117188 19.617188 119.84375 16.25 119.84375 Z M 97.5 20.679688 C 97.5 31.449219 90.90625 37.492188 89.050781 44.6875 L 114.878906 44.6875 C 123.359375 44.6875 129.960938 51.730469 130 59.4375 C 130.019531 63.992188 128.082031 68.898438 125.0625 71.929688 L 125.035156 71.957031 C 127.535156 77.882812 127.128906 86.1875 122.671875 92.136719 C 124.875 98.710938 122.65625 106.789062 118.511719 111.117188 C 119.605469 115.585938 119.082031 119.386719 116.953125 122.449219 C 111.769531 129.894531 98.925781 130 88.066406 130 L 87.34375 130 C 75.082031 129.996094 65.046875 125.53125 56.984375 121.945312 C 52.933594 120.140625 47.636719 117.910156 43.617188 117.835938 C 41.957031 117.804688 40.625 116.453125 40.625 114.789062 L 40.625 60.511719 C 40.625 59.699219 40.949219 58.921875 41.527344 58.347656 C 51.585938 48.410156 55.910156 37.886719 64.15625 29.628906 C 67.914062 25.863281 69.28125 20.175781 70.601562 14.675781 C 71.730469 9.976562 74.09375 0 79.21875 0 C 85.3125 0 97.5 2.03125 97.5 20.679688 Z M 97.5 20.679688 "/>
</g>
</svg>
