<?xml version="1.0" encoding="UTF-8"?>
<svg xmlns="http://www.w3.org/2000/svg" xmlns:xlink="http://www.w3.org/1999/xlink" width="15pt" height="17pt" viewBox="0 0 15 17" version="1.1">
<g>
<path style="fill:#264B20;" d="M 10.738281 9.707031 C 9.753906 9.707031 9.28125 10.214844 7.671875 10.214844 C 6.058594 10.214844 5.585938 9.707031 4.601562 9.707031 C 2.0625 9.707031 0 11.628906 0 13.996094 L 0 14.8125 C 0 15.65625 0.738281 16.347656 1.644531 16.347656 L 13.695312 16.347656 C 14.601562 16.347656 15.339844 15.65625 15.339844 14.8125 L 15.339844 13.996094 C 15.339844 11.628906 13.277344 9.707031 10.738281 9.707031 Z M 13.695312 14.8125 L 1.644531 14.8125 L 1.644531 13.996094 C 1.644531 12.476562 2.96875 11.238281 4.601562 11.238281 C 5.101562 11.238281 5.914062 11.75 7.671875 11.75 C 9.441406 11.75 10.234375 11.238281 10.738281 11.238281 C 12.371094 11.238281 13.695312 12.476562 13.695312 13.996094 Z M 7.671875 9.195312 C 10.394531 9.195312 12.605469 7.140625 12.605469 4.597656 C 12.605469 2.054688 10.394531 0 7.671875 0 C 4.945312 0 2.738281 2.054688 2.738281 4.597656 C 2.738281 7.140625 4.945312 9.195312 7.671875 9.195312 Z M 7.671875 1.53125 C 9.480469 1.53125 10.960938 2.910156 10.960938 4.597656 C 10.960938 6.28125 9.480469 7.664062 7.671875 7.664062 C 5.859375 7.664062 4.382812 6.28125 4.382812 4.597656 C 4.382812 2.910156 5.859375 1.53125 7.671875 1.53125 Z M 7.671875 1.53125 "/>
</g>
</svg>
